<svg width="83" height="83" viewBox="0 0 83 83" fill="none" xmlns="http://www.w3.org/2000/svg">
<path d="M42.2371 34.9481C43.5587 34.9481 44.8261 35.473 45.7605 36.4075C46.695 37.342 47.22 38.6094 47.22 39.9309C47.22 40.3714 47.395 40.7939 47.7064 41.1054C48.0179 41.4169 48.4404 41.5918 48.8809 41.5918C49.3214 41.5918 49.7439 41.4169 50.0554 41.1054C50.3669 40.7939 50.5419 40.3714 50.5419 39.9309C50.5419 37.7283 49.6669 35.616 48.1095 34.0586C46.552 32.5011 44.4397 31.6262 42.2371 31.6262C41.7966 31.6262 41.3741 31.8012 41.0627 32.1126C40.7512 32.4241 40.5762 32.8466 40.5762 33.2871C40.5762 33.7276 40.7512 34.1501 41.0627 34.4616C41.3741 34.7731 41.7966 34.9481 42.2371 34.9481Z" fill="#2E2E30"/>
<path d="M42.2371 28.3043C45.3207 28.3043 48.278 29.5292 50.4584 31.7096C52.6388 33.89 53.8638 36.8473 53.8638 39.9309C53.8638 40.3714 54.0387 40.7939 54.3502 41.1054C54.6617 41.4168 55.0842 41.5918 55.5247 41.5918C55.9652 41.5918 56.3877 41.4168 56.6992 41.1054C57.0107 40.7939 57.1856 40.3714 57.1856 39.9309C57.1856 35.9663 55.6107 32.1641 52.8073 29.3607C50.0039 26.5573 46.2017 24.9824 42.2371 24.9824C41.7966 24.9824 41.3741 25.1574 41.0627 25.4688C40.7512 25.7803 40.5762 26.2028 40.5762 26.6433C40.5762 27.0838 40.7512 27.5063 41.0627 27.8178C41.3741 28.1293 41.7966 28.3043 42.2371 28.3043Z" fill="#2E2E30"/>
<path d="M47.9604 48.1533C47.5575 47.787 47.028 47.5917 46.4838 47.6085C45.9395 47.6254 45.4231 47.853 45.0436 48.2434L40.0255 53.4041C38.8177 53.1734 36.3894 52.4164 33.8898 49.9231C31.3903 47.4214 30.6333 44.9869 30.4089 43.7874L35.5653 38.7673C35.9562 38.388 36.1842 37.8715 36.201 37.3271C36.2179 36.7827 36.0222 36.2531 35.6555 35.8504L27.9072 27.3305C27.5403 26.9265 27.0304 26.6815 26.4858 26.6474C25.9412 26.6133 25.4047 26.7929 24.9903 27.148L20.4399 31.0505C20.0774 31.4143 19.861 31.8986 19.8318 32.4114C19.8004 32.9356 19.2006 45.3538 28.8299 54.9873C37.2303 63.3856 47.7528 64 50.6508 64C51.0744 64 51.3344 63.9874 51.4036 63.9832C51.9164 63.9545 52.4004 63.7372 52.7625 63.373L56.6628 58.8205C57.0182 58.4064 57.1981 57.8701 57.1645 57.3255C57.1308 56.7809 56.8861 56.2708 56.4825 55.9036L47.9604 48.1533Z" fill="#2E2E30"/>
</svg>
