<svg width="30" height="30" viewBox="0 0 30 30" fill="none" xmlns="http://www.w3.org/2000/svg">
<path d="M23.5 9.5L23.5 20.5" stroke="white" stroke-width="2" stroke-linecap="round" stroke-linejoin="round"/>
<path d="M6.7002 9.5L6.70019 20.5" stroke="white" stroke-width="2" stroke-linecap="round" stroke-linejoin="round"/>
<path fill-rule="evenodd" clip-rule="evenodd" d="M9.40012 13.6L7.00018 13.6V16L8.59947 16V16H10.9994L13.3994 14.3999H13.4001V14.4001L16.7958 14.4001L19 12.8001V12.0001L17.3996 12.0001V12L11.7997 12.0003L9.40012 13.6Z" fill="white"/>
<path fill-rule="evenodd" clip-rule="evenodd" d="M20.5999 16.2L22.9998 16.2V13.8001L21.4005 13.8001V13.8H19.0006L16.6006 15.4001H16.5999V15.4L13.2042 15.4L11 16.9999V17.7999L12.6004 17.7999V17.8L18.2003 17.7997L20.5999 16.2Z" fill="white"/>
</svg>
