<svg width="30" height="30" viewBox="0 0 30 30" fill="none" xmlns="http://www.w3.org/2000/svg">
<path d="M23.5 9.5L23.5 20.5" stroke="white" stroke-width="2" stroke-linecap="round" stroke-linejoin="round"/>
<path d="M6.7002 9.5L6.70019 20.5" stroke="white" stroke-width="2" stroke-linecap="round" stroke-linejoin="round"/>
<path fill-rule="evenodd" clip-rule="evenodd" d="M9.4011 12.6L7.00116 12.6V15L8.60045 15V15H11.0004L13.4003 13.3999H13.4011V13.4001L16.7968 13.4001L19.001 11.8001V11.0001L17.4006 11.0001V11L11.8007 11.0003L9.4011 12.6Z" fill="white"/>
<path fill-rule="evenodd" clip-rule="evenodd" d="M20.6009 17.2L23.0008 17.2V14.8001L21.4015 14.8001V14.8H19.0016L16.6016 16.4001H16.6008V16.4L13.2052 16.4L11.001 17.9999V18.7999L12.6014 18.7999V18.8L18.2012 18.7997L20.6009 17.2Z" fill="white"/>
</svg>
