<svg width="83" height="83" viewBox="0 0 83 83" fill="none" xmlns="http://www.w3.org/2000/svg">
<path d="M33.2448 48.4253C33.7801 48.3998 34.2846 48.1672 34.6517 47.7766C35.0188 47.3861 35.2198 46.8682 35.2122 46.3323L35.113 39.2477C36.1142 38.5676 38.3313 37.4043 41.8064 37.3999C45.2874 37.4014 47.5089 38.569 48.4999 39.2477L48.405 46.3309C48.3969 46.8669 48.5977 47.3851 48.9649 47.7757C49.3321 48.1664 49.8369 48.3988 50.3725 48.4238L61.6956 48.961C62.2321 48.9868 62.7576 48.8024 63.1604 48.447C63.5632 48.0917 63.8115 47.5933 63.8528 47.0577L64.3038 41.1743C64.3029 40.6687 64.1164 40.181 63.7798 39.8038C63.4368 39.417 55.2108 30.3562 41.8035 30.3533C30.1111 30.3547 22.3595 37.2511 20.3424 39.2682C20.0476 39.563 19.8754 39.7527 19.8301 39.8038C19.4932 40.1807 19.3076 40.6688 19.3091 41.1743L19.763 47.0577C19.8039 47.5933 20.0519 48.0918 20.4544 48.4474C20.8569 48.8031 21.3822 48.9878 21.9187 48.9624L33.2448 48.4253Z" fill="#2E2E30"/>
</svg>
