<svg width="83" height="83" viewBox="0 0 83 83" fill="none" xmlns="http://www.w3.org/2000/svg">
<path d="M45.4288 30H27.9045C26.3003 30 25 31.3003 25 32.9045V50.4288C25 52.0329 26.3003 53.3333 27.9045 53.3333H45.4288C47.033 53.3333 48.3333 52.0329 48.3333 50.4288V32.9045C48.3333 31.3003 47.033 30 45.4288 30ZM56.9374 32.2908L50.2777 36.8845V46.4488L56.9374 51.0364C58.2256 51.9236 59.9999 51.0182 59.9999 49.4687V33.8585C59.9999 32.3151 58.2317 31.4036 56.9374 32.2908Z" fill="white"/>
<path d="M23.583 21.5212C22.9484 22.0537 22.8656 22.9998 23.3981 23.6345L55.5375 61.9367C56.07 62.5713 57.0161 62.6541 57.6507 62.1216L58.4168 61.4788C59.0514 60.9463 59.1342 60.0001 58.6017 59.3655L26.4623 21.0633C25.9298 20.4287 24.9837 20.3459 24.3491 20.8784L23.583 21.5212Z" fill="white" stroke="url(#paint0_linear_654_1131)" stroke-width="2"/>
<defs>
<linearGradient id="paint0_linear_654_1131" x1="24.6088" y1="21.9659" x2="57.391" y2="61.0341" gradientUnits="userSpaceOnUse">
<stop stop-color="#020202"/>
<stop offset="1" stop-color="#020202"/>
</linearGradient>
</defs>
</svg>
