<svg viewBox="0 0 272 272" fill="none" xmlns="http://www.w3.org/2000/svg">
<path d="M139.114 86.4465H133.239C127.552 86.4465 122.098 88.7054 118.077 92.7266C114.056 96.7477 111.797 102.202 111.797 107.889V123.901C111.797 129.588 114.056 135.042 118.077 139.063C122.098 143.084 127.552 145.343 133.239 145.343H139.114C144.8 145.343 150.254 143.084 154.275 139.063C158.297 135.042 160.556 129.588 160.556 123.901V107.889C160.556 102.202 158.297 96.7477 154.275 92.7266C150.254 88.7054 144.8 86.4465 139.114 86.4465V86.4465Z" fill="#2E2E30"/>
<path d="M171.944 105.958V101.908C171.938 95.6094 169.434 89.5709 164.98 85.1174C160.527 80.6639 154.488 78.1595 148.19 78.1539H123.863C117.565 78.1595 111.527 80.6639 107.073 85.1174C102.62 89.5709 100.115 95.6094 100.11 101.908V105.958C99.3312 106.359 98.6793 106.967 98.2262 107.716C97.7731 108.465 97.5367 109.325 97.5434 110.2V119.532C97.5318 120.408 97.7662 121.27 98.2198 122.02C98.6734 122.77 99.3281 123.377 100.11 123.774V127.528C100.099 131.289 100.986 134.999 102.697 138.349C104.409 141.698 106.896 144.591 109.95 146.785C110.181 147.111 110.477 147.386 110.82 147.591L115.571 150.327C115.885 150.509 116.233 150.627 116.593 150.675C116.953 150.722 117.319 150.698 117.67 150.603C118.021 150.508 118.35 150.346 118.637 150.123C118.925 149.901 119.166 149.624 119.346 149.309L119.473 149.097C119.655 148.783 119.773 148.435 119.821 148.075C119.868 147.715 119.844 147.349 119.749 146.998C119.655 146.647 119.492 146.318 119.269 146.031C119.047 145.743 118.771 145.502 118.455 145.322L113.704 142.586C113.388 142.399 113.037 142.278 112.672 142.231C112.308 142.183 111.937 142.21 111.584 142.31C109.394 140.508 107.633 138.24 106.43 135.672C105.227 133.104 104.611 130.3 104.627 127.464V123.774C105.43 123.394 106.108 122.794 106.581 122.042C107.055 121.291 107.304 120.42 107.299 119.532V110.2C107.296 109.314 107.044 108.446 106.571 107.696C106.099 106.946 105.425 106.344 104.627 105.958V101.971C104.627 96.9088 106.638 92.0536 110.218 88.474C113.797 84.8943 118.653 82.8834 123.715 82.8834H148.041C153.104 82.8834 157.959 84.8943 161.539 88.474C165.118 92.0536 167.129 96.9088 167.129 101.971V105.852C166.312 106.222 165.618 106.817 165.129 107.569C164.641 108.321 164.378 109.197 164.372 110.094V119.426C164.369 120.045 164.489 120.659 164.725 121.231C164.96 121.804 165.307 122.324 165.745 122.762C166.183 123.199 166.703 123.546 167.275 123.782C167.848 124.017 168.461 124.137 169.08 124.134H169.505C170.124 124.137 170.737 124.017 171.31 123.782C171.882 123.546 172.402 123.199 172.84 122.762C173.278 122.324 173.625 121.804 173.86 121.231C174.096 120.659 174.216 120.045 174.213 119.426V110.094C174.241 109.264 174.045 108.443 173.645 107.715C173.246 106.987 172.658 106.381 171.944 105.958V105.958Z" fill="#2E2E30"/>
<path d="M186.261 176.308C186.313 169.751 183.833 163.426 179.336 158.653C174.84 153.88 168.674 151.026 162.125 150.688C158.053 150.497 153.239 150.412 153.239 150.412C153.239 150.412 146.176 165.385 144.183 169.5L138.711 158.556H133.79C131.33 163.455 128.255 169.394 128.255 169.394L120.917 155.141C120.175 155.134 119.447 154.945 118.796 154.59L112.052 150.709H110.397C103.868 151.103 97.7358 153.974 93.2507 158.735C88.7657 163.496 86.266 169.788 86.2617 176.329V181.758H186.24L186.261 176.308Z" fill="#2E2E30"/>
<g opacity="0.2">
<circle cx="136" cy="136" r="135" stroke="url(#paint0_linear_2_1264)" stroke-width="2"/>
<circle cx="136" cy="136" r="135" stroke="url(#paint1_linear_2_1264)" stroke-width="2"/>
</g>
<defs>
<linearGradient id="paint0_linear_2_1264" x1="342.25" y1="289.697" x2="-10.9351" y2="79.1957" gradientUnits="userSpaceOnUse">
<stop offset="0.24" stop-color="#DEE3E8"/>
<stop offset="0.31" stop-color="#B7C2CD"/>
<stop offset="0.39" stop-color="#8194A8"/>
<stop offset="0.45" stop-color="#4E6884"/>
<stop offset="1" stop-color="#2E2E30"/>
</linearGradient>
<linearGradient id="paint1_linear_2_1264" x1="78.4096" y1="259.502" x2="193.59" y2="12.498" gradientUnits="userSpaceOnUse">
<stop stop-color="#2E2E30" stop-opacity="0"/>
<stop offset="0.16" stop-color="#313133"/>
<stop offset="0.3" stop-color="#3C3C3E"/>
<stop offset="0.43" stop-color="#4E4E50"/>
<stop offset="0.56" stop-color="#686869"/>
<stop offset="0.69" stop-color="#88888A"/>
<stop offset="0.81" stop-color="#B1B1B1"/>
<stop offset="0.93" stop-color="#DFDFE0"/>
<stop offset="1" stop-color="white"/>
</linearGradient>
</defs>
</svg>
