<svg width="83" height="83" viewBox="0 0 83 83" fill="none" xmlns="http://www.w3.org/2000/svg">
<path d="M41.5 83C64.4198 83 83 64.4198 83 41.5C83 18.5802 64.4198 0 41.5 0C18.5802 0 0 18.5802 0 41.5C0 64.4198 18.5802 83 41.5 83Z" fill="url(#paint0_linear_654_1092)"/>
<path d="M41.5003 78.7806C62.0898 78.7806 78.7809 62.0895 78.7809 41.5C78.7809 20.9105 62.0898 4.21942 41.5003 4.21942C20.9108 4.21942 4.21973 20.9105 4.21973 41.5C4.21973 62.0895 20.9108 78.7806 41.5003 78.7806Z" fill="url(#paint1_linear_654_1092)"/>
<path d="M41.5158 79.0598C31.5576 79.0492 22.0103 75.0887 14.9687 68.0471C7.92718 61.0056 3.96661 51.4582 3.95605 41.5C3.96661 31.5418 7.92718 21.9944 14.9687 14.9529C22.0103 7.91136 31.5576 3.9508 41.5158 3.94025C51.4741 3.9508 61.0214 7.91136 68.063 14.9529C75.1045 21.9944 79.065 31.5418 79.0756 41.5C79.065 51.4582 75.1045 61.0056 68.063 68.0471C61.0214 75.0887 51.4741 79.0492 41.5158 79.0598ZM41.5158 4.49859C31.7057 4.50914 22.3003 8.41088 15.3635 15.3477C8.42668 22.2845 4.52494 31.6898 4.51438 41.5C4.52494 51.3101 8.42668 60.7155 15.3635 67.6523C22.3003 74.5891 31.7057 78.4909 41.5158 78.5014C51.326 78.4909 60.7313 74.5891 67.6681 67.6523C74.605 60.7155 78.5067 51.3101 78.5173 41.5C78.5067 31.6898 74.605 22.2845 67.6681 15.3477C60.7313 8.41088 51.326 4.50914 41.5158 4.49859Z" fill="url(#paint2_linear_654_1092)"/>
<path d="M41.4995 78.7407C62.067 78.7407 78.7402 62.0675 78.7402 41.5C78.7402 20.9325 62.067 4.25928 41.4995 4.25928C20.932 4.25928 4.25879 20.9325 4.25879 41.5C4.25879 62.0675 20.932 78.7407 41.4995 78.7407Z" fill="url(#paint3_linear_654_1092)"/>
<path d="M41.4999 74.8085C59.8957 74.8085 74.8084 59.8958 74.8084 41.5C74.8084 23.1042 59.8957 8.19153 41.4999 8.19153C23.1041 8.19153 8.19141 23.1042 8.19141 41.5C8.19141 59.8958 23.1041 74.8085 41.4999 74.8085Z" fill="#2E2E30"/>
<path d="M41.4999 74.8085C59.8957 74.8085 74.8084 59.8958 74.8084 41.5C74.8084 23.1042 59.8957 8.19153 41.4999 8.19153C23.1041 8.19153 8.19141 23.1042 8.19141 41.5C8.19141 59.8958 23.1041 74.8085 41.4999 74.8085Z" fill="url(#paint4_linear_654_1092)"/>
<path d="M41.5003 78.7806C62.0898 78.7806 78.7809 62.0895 78.7809 41.5C78.7809 20.9105 62.0898 4.21942 41.5003 4.21942C20.9108 4.21942 4.21973 20.9105 4.21973 41.5C4.21973 62.0895 20.9108 78.7806 41.5003 78.7806Z" stroke="white" stroke-width="0.28" stroke-miterlimit="10"/>
<path d="M45.4288 30H27.9045C26.3003 30 25 31.3003 25 32.9045V50.4288C25 52.0329 26.3003 53.3333 27.9045 53.3333H45.4288C47.033 53.3333 48.3333 52.0329 48.3333 50.4288V32.9045C48.3333 31.3003 47.033 30 45.4288 30ZM56.9374 32.2908L50.2777 36.8845V46.4488L56.9374 51.0364C58.2256 51.9236 59.9999 51.0182 59.9999 49.4687V33.8585C59.9999 32.3151 58.2317 31.4036 56.9374 32.2908Z" fill="white"/>
<defs>
<linearGradient id="paint0_linear_654_1092" x1="8.35105" y1="66.4734" x2="74.649" y2="16.5186" gradientUnits="userSpaceOnUse">
<stop stop-color="#2E2E30"/>
<stop offset="0.16" stop-color="#313133"/>
<stop offset="0.3" stop-color="#3C3C3E"/>
<stop offset="0.43" stop-color="#4E4E50"/>
<stop offset="0.56" stop-color="#686869"/>
<stop offset="0.69" stop-color="#88888A"/>
<stop offset="0.81" stop-color="#B1B1B1"/>
<stop offset="0.93" stop-color="#DFDFE0"/>
<stop offset="1" stop-color="white"/>
</linearGradient>
<linearGradient id="paint1_linear_654_1092" x1="41.5003" y1="78.7806" x2="41.5003" y2="4.21942" gradientUnits="userSpaceOnUse">
<stop offset="0.16" stop-color="white"/>
<stop offset="0.19" stop-color="#F6F7F9"/>
<stop offset="0.24" stop-color="#DEE3E8"/>
<stop offset="0.31" stop-color="#B7C2CD"/>
<stop offset="0.39" stop-color="#8194A8"/>
<stop offset="0.45" stop-color="#4E6884"/>
<stop offset="1" stop-color="#2E2E30"/>
</linearGradient>
<linearGradient id="paint2_linear_654_1092" x1="41.4999" y1="79.0598" x2="41.4999" y2="3.93227" gradientUnits="userSpaceOnUse">
<stop stop-color="#020202"/>
<stop offset="1" stop-color="#020202"/>
</linearGradient>
<linearGradient id="paint3_linear_654_1092" x1="11.7564" y1="63.913" x2="71.2427" y2="19.087" gradientUnits="userSpaceOnUse">
<stop stop-color="white"/>
<stop offset="0.07" stop-color="#CBCDCE"/>
<stop offset="0.15" stop-color="#989C9F"/>
<stop offset="0.23" stop-color="#6D7377"/>
<stop offset="0.31" stop-color="#4D5359"/>
<stop offset="0.38" stop-color="#353C43"/>
<stop offset="0.45" stop-color="#272F36"/>
<stop offset="0.51" stop-color="#222A31"/>
<stop offset="0.56" stop-color="#272F36"/>
<stop offset="0.63" stop-color="#353D43"/>
<stop offset="0.7" stop-color="#4D5459"/>
<stop offset="0.77" stop-color="#6E7478"/>
<stop offset="0.85" stop-color="#999DA0"/>
<stop offset="0.92" stop-color="#CDCFD0"/>
<stop offset="0.99" stop-color="white"/>
</linearGradient>
<linearGradient id="paint4_linear_654_1092" x1="-457448" y1="-363215" x2="-457448" y2="-368779" gradientUnits="userSpaceOnUse">
<stop stop-color="#020202"/>
<stop offset="1" stop-color="#020202"/>
</linearGradient>
</defs>
</svg>
