<svg width="30" height="30" viewBox="0 0 30 30" fill="none" xmlns="http://www.w3.org/2000/svg">
<path d="M23.5 9.5L23.5 20.5" stroke="white" stroke-width="2" stroke-linecap="round" stroke-linejoin="round"/>
<path d="M20 9.5L20 20.5" stroke="white" stroke-width="2" stroke-linecap="round" stroke-linejoin="round"/>
<path fill-rule="evenodd" clip-rule="evenodd" d="M7.40012 13.6L5.00018 13.6V16L6.59947 16V16H8.99941L11.3994 14.3999H11.4001V14.4001L14.7958 14.4001L17 12.8001V12.0001L15.3996 12.0001V12L9.79973 12.0003L7.40012 13.6Z" fill="white"/>
<path fill-rule="evenodd" clip-rule="evenodd" d="M18.5999 16.2L20.9998 16.2V13.8001L19.4005 13.8001V13.8H17.0006L14.6006 15.4001H14.5999V15.4L11.2042 15.4L9 16.9999V17.7999L10.6004 17.7999V17.8L16.2003 17.7997L18.5999 16.2Z" fill="white"/>
</svg>
