<svg width="20" height="20" viewBox="0 0 20 20" fill="none" xmlns="http://www.w3.org/2000/svg">
<path d="M5.5 3.75H14.5" stroke="white" stroke-width="2" stroke-linecap="round"/>
<path d="M5.5 16.35H14.5" stroke="white" stroke-width="2" stroke-linecap="round"/>
<path fill-rule="evenodd" clip-rule="evenodd" d="M7.2998 5.44995H6.2998V6.44995V6.84008C6.2998 7.01863 6.32386 7.18849 6.36015 7.34451L6.36025 7.34496L6.36058 7.34636L6.36068 7.3468C6.52347 8.04382 6.99676 8.71981 7.37787 9.19613C7.67933 9.57292 7.99294 9.90827 8.2196 10.1421C8.18881 10.1759 8.15339 10.2144 8.11279 10.2586L8.10361 10.2686C7.86096 10.5327 7.50091 10.9244 7.1773 11.3538C6.86541 11.7676 6.50393 12.3223 6.36282 12.9111C6.32496 13.0691 6.2998 13.2416 6.2998 13.4235V13.8136V14.8136H7.2998H12.6998H13.6998V13.8136V13.4235C13.6998 13.2471 13.6771 13.0788 13.6416 12.9224L12.7707 13.1205L13.6416 12.9224C13.5074 12.3326 13.159 11.7889 12.85 11.3775C12.5323 10.9545 12.1726 10.565 11.915 10.2861L11.9041 10.2742L11.1694 10.9526L11.9041 10.2742C11.8577 10.224 11.816 10.1788 11.7784 10.1377L11.8268 10.0858C11.9869 9.91356 12.2042 9.6729 12.4305 9.40154C12.655 9.13237 12.899 8.82046 13.1067 8.50695C13.3014 8.21312 13.5188 7.83814 13.618 7.45604C13.6295 7.41163 13.6401 7.36651 13.6495 7.32072L12.6998 7.1255L13.6495 7.32072C13.6808 7.16844 13.6998 7.00735 13.6998 6.84008V6.44995V5.44995H12.6998H7.2998ZM11.4908 10.4375C11.4907 10.4375 11.4916 10.4365 11.4935 10.4343L11.4908 10.4375ZM9.95757 11.1962C9.96814 11.1847 9.98263 11.1689 9.9998 11.1494C10.017 11.1689 10.0315 11.1847 10.042 11.1962L10.0525 11.2076L10.0525 11.2076C10.0751 11.2326 10.0924 11.2518 10.1105 11.2727C10.2021 11.3791 10.3157 11.5021 10.4259 11.6215L10.4259 11.6215L10.4347 11.631C10.7019 11.9203 10.9989 12.2432 11.2509 12.5787C11.3133 12.6618 11.3687 12.7402 11.4173 12.8136H8.59252C8.6456 12.7337 8.70615 12.6482 8.77447 12.5576C9.03509 12.2118 9.33589 11.8835 9.58542 11.6119L9.6006 11.5954C9.70338 11.4836 9.81349 11.3638 9.89451 11.2664C9.9107 11.2479 9.92679 11.2301 9.94711 11.2076L9.21712 10.5471L9.94711 11.2076L9.95757 11.1962Z" fill="white"/>
</svg>
