<svg width="46" height="46" viewBox="0 0 46 46" fill="none" xmlns="http://www.w3.org/2000/svg">
<g clip-path="url(#clip0_106_1362)">
<path d="M39.2611 39.2627C48.2432 30.2807 48.2431 15.7179 39.2611 6.73584C30.279 -2.24622 15.7162 -2.24626 6.73417 6.7358C-2.24789 15.7179 -2.24789 30.2807 6.73417 39.2627C15.7162 48.2448 30.279 48.2448 39.2611 39.2627Z" fill="url(#paint0_linear_106_1362)"/>
<path d="M43.652 23.0393C43.6659 11.6258 34.4268 2.36208 23.0157 2.34814C11.6047 2.33419 2.3429 11.5754 2.32896 22.9888C2.31501 34.4023 11.5542 43.6661 22.9652 43.68C34.3763 43.694 43.6381 34.4528 43.652 23.0393Z" fill="url(#paint1_linear_106_1362)"/>
<path d="M22.9999 43.8207C17.4805 43.8136 12.1892 41.6177 8.28675 37.7144C4.38434 33.8112 2.18944 28.5194 2.18359 23C2.18944 17.4806 4.38434 12.1888 8.28675 8.28561C12.1892 4.38236 17.4805 2.18634 22.9999 2.17932C28.5193 2.18634 33.8106 4.38236 37.713 8.28561C41.6154 12.1888 43.8103 17.4806 43.8161 23C43.8103 28.5194 41.6154 33.8112 37.713 37.7144C33.8106 41.6177 28.5193 43.8136 22.9999 43.8207ZM22.9999 2.48874C17.5625 2.49576 12.3499 4.65916 8.50556 8.50437C4.66118 12.3496 2.49891 17.5626 2.49306 23C2.49891 28.4374 4.66118 33.6504 8.50556 37.4956C12.3499 41.3408 17.5625 43.5042 22.9999 43.5112C28.4373 43.5042 33.6498 41.3408 37.4942 37.4956C41.3386 33.6504 43.5008 28.4374 43.5067 23C43.5008 17.5626 41.3386 12.3496 37.4942 8.50437C33.6498 4.65916 28.4373 2.49576 22.9999 2.48874V2.48874Z" fill="url(#paint2_linear_106_1362)"/>
<path d="M43.6254 23.0438C43.6393 11.6425 34.41 2.38865 23.0111 2.37472C11.6123 2.3608 2.36044 11.5921 2.34651 22.9933C2.33258 34.3946 11.5618 43.6485 22.9607 43.6624C34.3595 43.6763 43.6114 34.445 43.6254 23.0438Z" fill="url(#paint3_linear_106_1362)"/>
<path d="M30.0646 40.0551C39.4837 36.1536 43.9566 25.355 40.0551 15.9358C36.1535 6.51665 25.355 2.04371 15.9358 5.94526C6.51661 9.84681 2.04369 20.6454 5.94524 30.0646C9.84679 39.4837 20.6454 43.9567 30.0646 40.0551Z" fill="url(#paint4_linear_106_1362)"/>
<path d="M43.652 23.0394C43.6659 11.6259 34.4268 2.36214 23.0157 2.3482C11.6047 2.33426 2.3429 11.5754 2.32896 22.9889C2.31501 34.4024 11.5542 43.6661 22.9652 43.6801C34.3763 43.694 43.6381 34.4529 43.652 23.0394Z" stroke="white" stroke-width="0.28" stroke-miterlimit="10"/>
<path d="M30.0646 40.0551C39.4837 36.1536 43.9566 25.355 40.0551 15.9358C36.1535 6.51665 25.355 2.04371 15.9358 5.94526C6.51661 9.84681 2.04369 20.6454 5.94524 30.0646C9.84679 39.4837 20.6454 43.9567 30.0646 40.0551Z" fill="url(#paint5_linear_106_1362)"/>
</g>
<defs>
<linearGradient id="paint0_linear_106_1362" x1="4.6253" y1="36.8423" x2="41.3643" y2="9.15653" gradientUnits="userSpaceOnUse">
<stop stop-color="#2E2E30"/>
<stop offset="0.16" stop-color="#313133"/>
<stop offset="0.3" stop-color="#3C3C3E"/>
<stop offset="0.43" stop-color="#4E4E50"/>
<stop offset="0.56" stop-color="#686869"/>
<stop offset="0.69" stop-color="#88888A"/>
<stop offset="0.81" stop-color="#B1B1B1"/>
<stop offset="0.93" stop-color="#DFDFE0"/>
<stop offset="1" stop-color="white"/>
</linearGradient>
<linearGradient id="paint1_linear_106_1362" x1="23.0404" y1="43.6263" x2="23.0404" y2="2.29437" gradientUnits="userSpaceOnUse">
<stop offset="0.16" stop-color="white"/>
<stop offset="0.19" stop-color="#F6F7F9"/>
<stop offset="0.24" stop-color="#DEE3E8"/>
<stop offset="0.31" stop-color="#B7C2CD"/>
<stop offset="0.39" stop-color="#8194A8"/>
<stop offset="0.45" stop-color="#4E6884"/>
<stop offset="1" stop-color="#2E2E30"/>
</linearGradient>
<linearGradient id="paint2_linear_106_1362" x1="22.9999" y1="43.8251" x2="22.9999" y2="2.17932" gradientUnits="userSpaceOnUse">
<stop stop-color="#020202"/>
<stop offset="1" stop-color="#020202"/>
</linearGradient>
<linearGradient id="paint3_linear_106_1362" x1="6.56947" y1="35.3644" x2="39.5422" y2="10.5167" gradientUnits="userSpaceOnUse">
<stop stop-color="white"/>
<stop offset="0.07" stop-color="#CBCDCE"/>
<stop offset="0.15" stop-color="#989C9F"/>
<stop offset="0.23" stop-color="#6D7377"/>
<stop offset="0.31" stop-color="#4D5359"/>
<stop offset="0.38" stop-color="#353C43"/>
<stop offset="0.45" stop-color="#272F36"/>
<stop offset="0.51" stop-color="#222A31"/>
<stop offset="0.56" stop-color="#272F36"/>
<stop offset="0.63" stop-color="#353D43"/>
<stop offset="0.7" stop-color="#4D5459"/>
<stop offset="0.77" stop-color="#6E7478"/>
<stop offset="0.85" stop-color="#999DA0"/>
<stop offset="0.92" stop-color="#CDCFD0"/>
<stop offset="0.99" stop-color="white"/>
</linearGradient>
<linearGradient id="paint4_linear_106_1362" x1="-233669" y1="-205307" x2="-233669" y2="-208391" gradientUnits="userSpaceOnUse">
<stop stop-color="#020202"/>
<stop offset="1" stop-color="#020202"/>
</linearGradient>
<linearGradient id="paint5_linear_106_1362" x1="23.0016" y1="41.4579" x2="23.0016" y2="4.53767" gradientUnits="userSpaceOnUse">
<stop stop-color="#808084"/>
<stop offset="0.14" stop-color="#86868A"/>
<stop offset="0.34" stop-color="#98989B"/>
<stop offset="0.57" stop-color="#B6B6B8"/>
<stop offset="0.82" stop-color="#DEDEDF"/>
<stop offset="1" stop-color="white"/>
</linearGradient>
<clipPath id="clip0_106_1362">
<rect width="46" height="46" fill="white"/>
</clipPath>
</defs>
</svg>
