<svg width="20" height="20" viewBox="0 0 20 20" fill="none" xmlns="http://www.w3.org/2000/svg">
<path d="M11 15.5L17 15.5M17 15.5L14.5 13M17 15.5L14.5 18" stroke="white" stroke-width="2" stroke-linecap="round" stroke-linejoin="round"/>
<circle cx="7.5" cy="8.5" r="5" stroke="white"/>
<path fill-rule="evenodd" clip-rule="evenodd" d="M8 8.5C8 8.77614 7.77614 9 7.5 9C7.22386 9 7 8.77614 7 8.5C7 8.22386 7.22386 8 7.5 8C7.77614 8 8 8.22386 8 8.5ZM10 8.5C10 9.88071 8.88071 11 7.5 11C6.11929 11 5 9.88071 5 8.5C5 7.11929 6.11929 6 7.5 6C8.88071 6 10 7.11929 10 8.5ZM6.48338 6.7335L6.48057 6.73513C6.30707 6.83565 6.24791 7.05779 6.34844 7.23129C6.44897 7.40479 6.67111 7.46395 6.84461 7.36342L6.84645 7.36236L6.84829 7.36129C7.0221 7.2613 7.08194 7.03935 6.98195 6.86554C6.88196 6.69173 6.66 6.63189 6.48619 6.73188L6.48338 6.7335ZM6.35462 9.19207C6.25463 9.01827 6.03267 8.95842 5.85886 9.05842C5.68505 9.15841 5.62521 9.38036 5.72521 9.55417L5.72683 9.55698L5.72845 9.5598C5.82898 9.73329 6.05112 9.79245 6.22462 9.69192C6.39812 9.5914 6.45727 9.36925 6.35675 9.19576L6.35568 9.19392L6.35462 9.19207ZM9.30524 7.48724C9.20471 7.31374 8.98257 7.25459 8.80907 7.35511C8.63557 7.45564 8.57642 7.67778 8.67694 7.85128L8.67801 7.85312L8.67907 7.85496C8.77906 8.02877 9.00102 8.08861 9.17482 7.98862C9.34863 7.88863 9.40847 7.66667 9.30848 7.49286L9.30686 7.49005L9.30524 7.48724ZM8.1854 9.68574C8.01159 9.78573 7.95175 10.0077 8.05174 10.1815C8.15173 10.3553 8.37369 10.4151 8.5475 10.3152L8.55031 10.3135L8.55312 10.3119C8.72662 10.2114 8.78577 9.98924 8.68525 9.81574C8.58472 9.64224 8.36258 9.58309 8.18908 9.68362L8.18724 9.68468L8.1854 9.68574Z" fill="white"/>
</svg>
