<svg width="20" height="20" viewBox="0 0 20 20" fill="none" xmlns="http://www.w3.org/2000/svg">
<circle cx="8" cy="8.5" r="5" stroke="white"/>
<path fill-rule="evenodd" clip-rule="evenodd" d="M8.5 8.5C8.5 8.77614 8.27614 9 8 9C7.72386 9 7.5 8.77614 7.5 8.5C7.5 8.22386 7.72386 8 8 8C8.27614 8 8.5 8.22386 8.5 8.5ZM10.5 8.5C10.5 9.88071 9.38071 11 8 11C6.61929 11 5.5 9.88071 5.5 8.5C5.5 7.11929 6.61929 6 8 6C9.38071 6 10.5 7.11929 10.5 8.5ZM6.98338 6.7335L6.98057 6.73513C6.80707 6.83565 6.74791 7.05779 6.84844 7.23129C6.94897 7.40479 7.17111 7.46395 7.34461 7.36342L7.34645 7.36236L7.34829 7.36129C7.5221 7.2613 7.58194 7.03935 7.48195 6.86554C7.38196 6.69173 7.16 6.63189 6.98619 6.73188L6.98338 6.7335ZM6.85462 9.19207C6.75463 9.01827 6.53267 8.95842 6.35886 9.05842C6.18505 9.15841 6.12521 9.38036 6.22521 9.55417L6.22683 9.55698L6.22845 9.5598C6.32898 9.73329 6.55112 9.79245 6.72462 9.69192C6.89812 9.5914 6.95727 9.36925 6.85675 9.19576L6.85568 9.19392L6.85462 9.19207ZM9.80524 7.48724C9.70471 7.31374 9.48257 7.25459 9.30907 7.35511C9.13557 7.45564 9.07642 7.67778 9.17694 7.85128L9.17801 7.85312L9.17907 7.85496C9.27906 8.02877 9.50102 8.08861 9.67482 7.98862C9.84863 7.88863 9.90847 7.66667 9.80848 7.49286L9.80686 7.49005L9.80524 7.48724ZM8.6854 9.68574C8.51159 9.78573 8.45175 10.0077 8.55174 10.1815C8.65173 10.3553 8.87369 10.4151 9.0475 10.3152L9.05031 10.3135L9.05312 10.3119C9.22662 10.2114 9.28577 9.98924 9.18525 9.81574C9.08472 9.64224 8.86258 9.58309 8.68908 9.68362L8.68724 9.68468L8.6854 9.68574Z" fill="white"/>
<path fill-rule="evenodd" clip-rule="evenodd" d="M16.5 12V17.5H4.5V16.5L7.15134 15.5H14.4998L14.5 12H16.5Z" fill="white"/>
</svg>
