<svg width="30" height="30" viewBox="0 0 30 30" fill="none" xmlns="http://www.w3.org/2000/svg">
<path d="M23.5 9.5L23.5 20.5" stroke="white" stroke-width="2" stroke-linecap="round" stroke-linejoin="round"/>
<path d="M20 9.5L20 20.5" stroke="white" stroke-width="2" stroke-linecap="round" stroke-linejoin="round"/>
<path fill-rule="evenodd" clip-rule="evenodd" d="M6.90012 12.6L4.50018 12.6V15L6.09947 15V15H8.49941L10.8994 13.3999H10.9001V13.4001L14.2958 13.4001L16.5 11.8001V11.0001L14.8996 11.0001V11L9.29973 11.0003L6.90012 12.6Z" fill="white"/>
<path fill-rule="evenodd" clip-rule="evenodd" d="M18.6009 18.2L21.0008 18.2V15.8001L19.4015 15.8001V15.8H17.0016L14.6016 17.4001H14.6008V17.4L11.2052 17.4L9.00098 18.9999V19.7999L10.6014 19.7999V19.8L16.2012 19.7997L18.6009 18.2Z" fill="white"/>
</svg>
